<svg xmlns="http://www.w3.org/2000/svg" width="22" height="23" viewBox="0 0 22 23" fill="none">
  <g clip-path="url(#clip0_4867_2331)">
    <path
      d="M16.4001 10.8294C16.4001 10.4294 16.0942 10.1235 15.6942 10.1235C15.2942 10.1235 14.9883 10.4294 14.9883 10.8294C14.9883 13.5824 12.753 15.8176 10.0001 15.8176C7.24716 15.8176 5.01186 13.5824 5.01186 10.8294C5.01186 10.4294 4.70598 10.1235 4.30598 10.1235C3.90598 10.1235 3.6001 10.4294 3.6001 10.8294C3.6001 14.1 6.04716 16.8529 9.29422 17.2059V19.0882H6.72951C6.32951 19.0882 6.02363 19.3941 6.02363 19.7941C6.02363 20.1941 6.32951 20.5 6.72951 20.5H13.2707C13.6707 20.5 13.9766 20.1941 13.9766 19.7941C13.9766 19.3941 13.6707 19.0882 13.2707 19.0882H10.706V17.2059C13.953 16.8529 16.4001 14.1 16.4001 10.8294Z"
      fill="#111827" />
    <path
      d="M9.99997 0.5C7.83526 0.5 6.07056 2.26471 6.07056 4.42941V10.8059C6.07056 12.9941 7.83526 14.7353 9.99997 14.7588C12.1647 14.7588 13.9294 12.9941 13.9294 10.8294V4.42941C13.9294 2.26471 12.1647 0.5 9.99997 0.5Z"
      fill="#111827" />
  </g>
  <defs>
    <clipPath id="clip0_4867_2331">
      <rect width="22" height="22" fill="white" transform="translate(0 0.5)" />
    </clipPath>
  </defs>
</svg>