<svg xmlns="http://www.w3.org/2000/svg" width="22" height="23" viewBox="0 0 22 23" fill="none">
  <path
    d="M19.3696 5.76087H17.0739L15.8065 3.84783C15.3283 3.13043 14.4913 2.7 13.6304 2.7H8.36957C7.5087 2.7 6.67174 3.13043 6.19348 3.84783L4.92609 5.76087H2.63043C1.17174 5.76087 0 6.93261 0 8.3913V17.6696C0 19.1283 1.17174 20.3 2.63043 20.3H19.3696C20.8283 20.3 22 19.1283 22 17.6696V8.3913C22 6.93261 20.8283 5.76087 19.3696 5.76087ZM11 18.1478C7.72391 18.1478 5.06957 15.4935 5.06957 12.2174C5.06957 8.9413 7.72391 6.31087 11 6.31087C14.2761 6.31087 16.9304 8.96522 16.9304 12.2413C16.9304 15.4935 14.2761 18.1478 11 18.1478ZM19.0348 9.46739C19.0109 9.46739 18.987 9.46739 18.9391 9.46739H17.9826C17.5522 9.44348 17.2174 9.08478 17.2413 8.65435C17.2652 8.24783 17.5761 7.93696 17.9826 7.91304H18.9391C19.3696 7.88913 19.7283 8.22391 19.7522 8.65435C19.7761 9.08478 19.4652 9.44348 19.0348 9.46739Z"
    fill="#111827" />
  <path
    d="M11 8.9413C9.18256 8.9413 7.69995 10.4239 7.69995 12.2413C7.69995 14.0587 9.18256 15.5174 11 15.5174C12.8173 15.5174 14.3 14.0348 14.3 12.2174C14.3 10.4 12.8173 8.9413 11 8.9413Z"
    fill="#111827" />
</svg>