<svg width="23" height="23" viewBox="0 0 23 23" fill="none" xmlns="http://www.w3.org/2000/svg">
<g clip-path="url(#clip0_8302_6338)">
<path d="M13.1289 4.86975L2.41008 15.5886C2.32208 15.6766 2.25883 15.7873 2.22858 15.9089L0.973203 20.9593C0.915453 21.1938 0.984203 21.4406 1.1547 21.6111C1.32589 21.7823 1.57408 21.8496 1.80645 21.7926L6.85683 20.5379C6.97783 20.5076 7.08852 20.4451 7.1772 20.3564L17.896 9.63756L13.1289 4.86975Z" fill="#111827"/>
<path d="M20.591 2.17543C19.2765 0.860935 17.1384 0.860935 15.8232 2.17543L14.1003 3.89831L18.8682 8.66612L20.591 6.94325C21.9055 5.62806 21.9055 3.48993 20.591 2.17543Z" fill="#111827"/>
</g>
<defs>
<clipPath id="clip0_8302_6338">
<rect width="22" height="22" fill="white" transform="translate(0.265869 0.5)"/>
</clipPath>
</defs>
</svg>
