<svg xmlns="http://www.w3.org/2000/svg" width="22" height="23" viewBox="0 0 22 23" fill="none">
  <path
    d="M13.3371 2.33334H3.98882C3.10272 2.33334 2.38208 3.15561 2.38208 4.16667V18.8333C2.38208 19.8444 3.10272 20.6667 3.98882 20.6667H13.3371C14.2232 20.6667 14.9439 19.8444 14.9439 18.8333V4.16667C14.9439 3.15561 14.2232 2.33334 13.3371 2.33334ZM8.07871 17.3333H5.15736C4.91544 17.3333 4.71916 17.1094 4.71916 16.8333C4.71916 16.5573 4.91544 16.3333 5.15736 16.3333H8.07871C8.32063 16.3333 8.51691 16.5573 8.51691 16.8333C8.51691 17.1094 8.32063 17.3333 8.07871 17.3333ZM12.1686 14.6667H5.15736C4.91544 14.6667 4.71916 14.4427 4.71916 14.1667C4.71916 13.8906 4.91544 13.6667 5.15736 13.6667H12.1686C12.4105 13.6667 12.6068 13.8906 12.6068 14.1667C12.6068 14.4427 12.4105 14.6667 12.1686 14.6667ZM12.1686 12H5.15736C4.91544 12 4.71916 11.776 4.71916 11.5C4.71916 11.224 4.91544 11 5.15736 11H12.1686C12.4105 11 12.6068 11.224 12.6068 11.5C12.6068 11.776 12.4105 12 12.1686 12ZM12.1686 9.33334H5.15736C4.91544 9.33334 4.71916 9.10938 4.71916 8.83334C4.71916 8.5573 4.91544 8.33334 5.15736 8.33334H12.1686C12.4105 8.33334 12.6068 8.5573 12.6068 8.83334C12.6068 9.10938 12.4105 9.33334 12.1686 9.33334ZM12.1686 6.66667H5.15736C4.91544 6.66667 4.71916 6.44271 4.71916 6.16667C4.71916 5.89063 4.91544 5.66667 5.15736 5.66667H12.1686C12.4105 5.66667 12.6068 5.89063 12.6068 6.16667C12.6068 6.44271 12.4105 6.66667 12.1686 6.66667Z"
    fill="#111827" />
  <path
    d="M16.4045 8.6668V17.5001C16.4045 17.6329 16.4508 17.7599 16.5329 17.8537L17.7015 19.187C17.787 19.2846 17.8989 19.3335 18.0113 19.3335C18.1237 19.3335 18.2355 19.2846 18.3211 19.187L19.4896 17.8537C19.5718 17.7599 19.618 17.6329 19.618 17.5001V8.6668H16.4045Z"
    fill="#111827" />
  <path d="M19.618 7.6668V6.83347C19.618 5.8224 18.8974 5.00014 18.0113 5.00014C17.1252 5.00014 16.4045 5.8224 16.4045 6.83347V7.6668H19.618Z" fill="#111827" />
</svg>