<svg xmlns="http://www.w3.org/2000/svg" width="22" height="23" viewBox="0 0 22 23" fill="none">
  <g clip-path="url(#clip0_4867_2319)">
    <path
      d="M21.7169 6.13372C21.5398 6.01384 21.3148 5.9896 21.1162 6.06901L16.3855 7.96126V15.0387L21.1162 16.931C21.1934 16.9619 21.2747 16.9771 21.3555 16.9771C21.4825 16.9771 21.6087 16.9395 21.7169 16.8663C21.894 16.7464 22.0001 16.5465 22.0001 16.3326V6.66743C22.0001 6.45358 21.894 6.25364 21.7169 6.13372Z"
      fill="#111827" />
    <path
      d="M13.0711 18.3578H2.02529C0.908574 18.3578 0 17.4493 0 16.3326V6.66743C0 5.55071 0.908574 4.64218 2.02529 4.64218H13.0711C14.1878 4.64218 15.0963 5.55071 15.0963 6.66743V16.3326C15.0963 17.4493 14.1878 18.3578 13.0711 18.3578Z"
      fill="#111827" />
  </g>
  <defs>
    <clipPath id="clip0_4867_2319">
      <rect width="22" height="22" fill="white" transform="translate(0 0.5)" />
    </clipPath>
  </defs>
</svg>